<svg id="Слой_2_копия2_" data-name="Слой 2 (копия2)" xmlns="http://www.w3.org/2000/svg" xmlns:xlink="http://www.w3.org/1999/xlink" viewBox="0 0 1556.38 1780.95"><defs><style>.cls-1{fill:url(#Безымянный_градиент_94);}.cls-2{fill:url(#Безымянный_градиент_96);}.cls-3{fill:url(#Безымянный_градиент_99);}.cls-4{fill:url(#Безымянный_градиент_101);}</style><linearGradient id="Безымянный_градиент_94" x1="1040.05" y1="1846.52" x2="1040.05" y2="65.57" gradientUnits="userSpaceOnUse"><stop offset="0" stop-color="#62869b"/><stop offset="1" stop-color="#fff"/></linearGradient><linearGradient id="Безымянный_градиент_96" x1="840.19" y1="305.61" x2="985.36" y2="160.44" gradientUnits="userSpaceOnUse"><stop offset="0" stop-color="#62869b"/><stop offset="1" stop-color="#fff" stop-opacity="0"/></linearGradient><linearGradient id="Безымянный_градиент_99" x1="1464.02" y1="799.53" x2="1464.02" y2="438.04" gradientUnits="userSpaceOnUse"><stop offset="0" stop-color="#fff" stop-opacity="0"/><stop offset="1" stop-color="#62869b"/></linearGradient><linearGradient id="Безымянный_градиент_101" x1="1008.75" y1="748.22" x2="1008.75" y2="472.72" xlink:href="#Безымянный_градиент_96"/></defs><title>N</title><path class="cls-1" d="M1437.67,65.57h0c-3.6,0-7.19.08-10.77.18-4-.11-8-.18-12-.18h0a333.26,333.26,0,0,0-232.66,94.66L1040.05,298.9l-66.2-64.55h0l-76-74.12A333.29,333.29,0,0,0,665.17,65.57h0c-4,0-8,.07-12,.18-3.58-.1-7.17-.18-10.76-.18h0c-209.74,0-379.76,170-379.76,379.76v1148c0,139.83,113.35,253.18,253.18,253.18h0a215.1,215.1,0,0,0,160.61-72l363.59-408,363.58,408a215.12,215.12,0,0,0,160.61,72h0c139.82,0,253.18-113.35,253.18-253.18v-1148C1817.43,235.6,1647.4,65.57,1437.67,65.57Zm-31.22,619.29-243.9-254,.41-.4,155.3-139a180.07,180.07,0,0,1,110-45.6c104,5.32,189,82.75,206,183.3ZM549.92,1646a61.38,61.38,0,0,1-45.85,20.55h0a61.4,61.4,0,0,1-61.4-61.4V466.19c0-118,92.63-214.36,209.14-220.32a180,180,0,0,1,110,45.6L903.41,418.18l388.14,395.61Zm1087.51-40.85a61.4,61.4,0,0,1-61.41,61.4h0a61.38,61.38,0,0,1-45.84-20.55l-369.58-414.7,476.83-535Z" transform="translate(-262.67 -65.57)"/><polygon class="cls-2" points="919.59 94.66 777.38 233.33 899.88 365.29 1049.83 231.06 919.59 94.66"/><polygon class="cls-3" points="1371.65 634.14 1556.38 438.04 1556.38 799.53 1371.65 799.53 1371.65 634.14"/><polygon class="cls-4" points="1143.78 619.29 1028.88 748.22 873.71 590.06 1003.03 472.72 1143.78 619.29"/></svg>